<?xml version="1.0" encoding="UTF-8"?>
<svg xmlns="http://www.w3.org/2000/svg" version="1.1" viewBox="0 0 566.93 212.6">
  <defs>
    <style>
      .cls-1 {
        fill: #fffce8;
      }
    </style>
  </defs>
  <!-- Generator: Adobe Illustrator 28.8.0, SVG Export Plug-In . SVG Version: 1.2.0 Build 19)  -->
  <g>
    <g id="ressources_exp">
      <path class="cls-1" d="M222.86,150.1s-15.11.44-15.11-8v-58.13c0-5.06-.36-7.93-6.36-7.93,0,0,15.32-1.75,15.32,7.93v58.13c0,5.06,2.05,7.73,6.16,8ZM434.39,142.1v-58.13c0-9.68-15.32-7.93-15.32-7.93,6,0,6.36,2.87,6.36,7.93v58.13c0,8.44,15.11,8,15.11,8-4.1-.27-6.16-2.94-6.16-8ZM285.91,101.42c0,5.61-2.67,14.03-8,18.62-5.33,4.58-13.81,6.84-25.51,6.84h-11.35v15.22l-.07.14c0,5.06,2.05,7.73,6.16,8,0,0-15.11,1.05-15.11-8v-58.13c0-5.06-2.12-7.73-6.36-7.93h26.67c11.69,0,20.24,2.26,25.58,6.7,5.34,4.44,8,12.87,8,18.55ZM276.41,101.49c0-13.54-8.34-23.68-24.96-23.68h-10.46v47.35h10.46c16.62,0,24.96-10.14,24.96-23.68ZM360.59,83.97v58.13c0,8,8.98,8,8.98,8h45.73v-15.11c-.27,4.03-1.5,7.25-3.63,9.64-2.12,2.39-4.99,3.62-8.62,3.62h-29.45s-3.99-.02-3.99-6.15v-22.85h20.8c5.06.27,7.8,2.94,8.14,8v-17.64c-.2,2.67-.96,4.58-2.33,5.75-1.37,1.16-3.35,1.85-5.95,2.05h-20.67v-39.74h33.44c3.63,0,6.5,1.23,8.62,3.69,2.12,2.46,3.35,5.75,3.63,9.78v-15.11h-61.07c4.24.2,6.36,2.87,6.36,7.93ZM320.24,105.65c-7.59-1.3-13.27-3.08-17.1-5.34-3.83-2.26-5.74-5.2-5.74-8.82,0-9.71,6.77-14.57,20.31-14.57s24.14,6.84,31.6,20.45c0,0,.14-8.78-4.08-13.46-4.22-4.68-14.04-8.7-27.58-8.7-8.14,0-14.57,1.64-19.36,4.86-4.79,3.21-7.18,7.39-7.18,12.52,0,6.09,2.33,10.87,6.98,14.36,4.65,3.49,11.63,6.09,20.86,7.8,9.1,1.71,15.53,3.97,19.36,6.7,3.83,2.74,5.74,6.22,5.74,10.4l.14-.2c0,5.27-1.99,9.37-6.02,12.31s-9.85,4.38-17.51,4.38c-12.52,0-22.43-6.77-29.82-20.31v12.11c7.59,6.7,17.51,10.05,29.82,10.05,9.23,0,16.48-1.78,21.75-5.34,5.27-3.56,7.93-8.21,7.93-13.88,0-6.43-2.33-11.76-6.98-16-4.65-4.24-12.38-7.32-23.12-9.3ZM497.92,114.95c-4.65-4.24-12.38-7.32-23.12-9.3-7.59-1.3-13.27-3.08-17.1-5.34-3.83-2.26-5.74-5.2-5.74-8.82,0-9.71,6.77-14.57,20.31-14.57s24.14,6.84,31.6,20.45c0,0,.14-8.78-4.08-13.46-4.22-4.68-14.04-8.7-27.58-8.7-8.14,0-14.57,1.64-19.36,4.86-4.79,3.21-7.18,7.39-7.18,12.52,0,6.09,2.33,10.87,6.98,14.36,4.65,3.49,11.63,6.09,20.86,7.8,9.1,1.71,15.53,3.97,19.36,6.7,3.83,2.74,5.74,6.22,5.74,10.4l.14-.2c0,5.27-1.99,9.37-6.02,12.31s-9.85,4.38-17.51,4.38c-12.52,0-22.43-6.77-29.82-20.31v12.11c7.59,6.7,17.51,10.05,29.82,10.05,9.23,0,16.48-1.78,21.75-5.34,5.27-3.56,7.93-8.21,7.93-13.88,0-6.43-2.33-11.76-6.98-16ZM119.9,105.18c-1.12-2.22-2.13-5.2-2.36-9.01-2.22-37.33-2.51-39.12-2.51-39.12,0,0-.29,1.79-2.51,39.12-.23,3.81-1.24,6.8-2.36,9.01-2.22,1.12-5.2,2.13-9.01,2.36-37.33,2.22-39.12,2.51-39.12,2.51,0,0,1.79.29,39.12,2.51,3.81.23,6.8,1.24,9.01,2.36,1.12,2.22,2.13,5.2,2.36,9.01,2.22,37.33,2.51,39.12,2.51,39.12,0,0,.29-1.79,2.51-39.12.23-3.81,1.24-6.8,2.36-9.01,2.22-1.12,5.2-2.13,9.01-2.36,37.33-2.22,39.12-2.51,39.12-2.51,0,0-1.79-.29-39.12-2.51-3.81-.23-6.8-1.24-9.01-2.36ZM209.19,61.34s.02.02.03.03c.01,0,.02.02.03.03.28.34.49.74.55,1.19.66,5.77.91,7.63.91,7.63,0,0,.25-1.86.91-7.63.05-.46.26-.85.55-1.19.01,0,.02-.02.03-.03,0-.01.02-.02.03-.03.34-.28.74-.49,1.19-.55,5.77-.66,7.63-.91,7.63-.91,0,0-1.86-.25-7.63-.91-.46-.05-.85-.26-1.19-.55,0-.01-.02-.02-.03-.03,0,0-.02-.02-.03-.03-.28-.34-.49-.74-.55-1.19-.66-5.77-.91-7.63-.91-7.63,0,0-.25,1.86-.91,7.63-.05.46-.26.85-.55,1.19-.01,0-.02.02-.03.03,0,.01-.02.02-.03.03-.34.28-.74.49-1.19.55-5.77.66-7.63.91-7.63.91,0,0,1.86.25,7.63.91.46.05.85.26,1.19.55ZM428.29,61.34s.02.02.03.03c.01,0,.02.02.03.03.28.34.49.74.55,1.19.66,5.77.91,7.63.91,7.63,0,0,.25-1.86.91-7.63.05-.46.26-.85.55-1.19.01,0,.02-.02.03-.03,0,0,.02-.02.03-.03.34-.28.74-.49,1.19-.55,5.77-.66,7.63-.91,7.63-.91,0,0-1.86-.25-7.63-.91-.46-.05-.85-.26-1.19-.55,0-.01-.02-.02-.03-.03,0,0-.02-.02-.03-.03-.28-.34-.49-.74-.55-1.19-.66-5.77-.91-7.63-.91-7.63,0,0-.25,1.86-.91,7.63-.05.46-.26.85-.55,1.19,0,0-.02.02-.03.03,0,.01-.02.02-.03.03-.34.28-.74.49-1.19.55-5.77.66-7.63.91-7.63.91,0,0,1.86.25,7.63.91.46.05.85.26,1.19.55ZM128.14,99.57l14.26-16.89-16.89,14.26s.63,2-1.3,3.92c1.92-1.92,3.92-1.3,3.92-1.3ZM124.22,119.24c1.92,1.92,1.3,3.92,1.3,3.92l16.89,14.26-14.26-16.89s-2,.63-3.92-1.3ZM101.93,120.53l-14.26,16.89,16.89-14.26s-.63-2,1.3-3.92c-1.92,1.92-3.92,1.3-3.92,1.3ZM105.85,100.86c-1.92-1.92-1.3-3.92-1.3-3.92l-16.89-14.26,14.26,16.89s2-.63,3.92,1.3Z"/>
    </g>
  </g>
</svg>