<?xml version="1.0" encoding="UTF-8"?>
<svg xmlns="http://www.w3.org/2000/svg" version="1.1" viewBox="0 0 212.6 212.6">
  <defs>
    <style>
      .cls-1 {
        fill: #ff4e00;
      }
    </style>
  </defs>
  <!-- Generator: Adobe Illustrator 28.8.0, SVG Export Plug-In . SVG Version: 1.2.0 Build 19)  -->
  <g>
    <g id="ressources_exp">
      <path class="cls-1" d="M111.17,101.43c-1.12-2.22-2.13-5.2-2.36-9.01-2.22-37.33-2.51-39.12-2.51-39.12,0,0-.29,1.79-2.51,39.12-.23,3.81-1.24,6.8-2.36,9.01-2.22,1.12-5.2,2.13-9.01,2.36-37.33,2.22-39.12,2.51-39.12,2.51,0,0,1.79.29,39.12,2.51,3.81.23,6.8,1.24,9.01,2.36,1.12,2.22,2.13,5.2,2.36,9.01,2.22,37.33,2.51,39.12,2.51,39.12,0,0,.29-1.79,2.51-39.12.23-3.81,1.24-6.8,2.36-9.01,2.22-1.12,5.2-2.13,9.01-2.36,37.33-2.22,39.12-2.51,39.12-2.51,0,0-1.79-.29-39.12-2.51-3.81-.23-6.8-1.24-9.01-2.36ZM119.41,95.82l14.26-16.89-16.89,14.26s.63,2-1.3,3.92c1.92-1.92,3.92-1.3,3.92-1.3ZM115.49,115.49c1.92,1.92,1.3,3.92,1.3,3.92l16.89,14.26-14.26-16.89s-2,.63-3.92-1.3ZM93.19,116.78l-14.26,16.89,16.89-14.26s-.63-2,1.3-3.92c-1.92,1.92-3.92,1.3-3.92,1.3ZM97.11,97.11c-1.92-1.92-1.3-3.92-1.3-3.92l-16.89-14.26,14.26,16.89s2-.63,3.92,1.3Z"/>
    </g>
  </g>
</svg>